<mxfile host="app.diagrams.net" modified="2023-10-21T17:30:19.472Z" agent="Mozilla/5.0 (Windows NT 10.0; Win64; x64) AppleWebKit/537.36 (KHTML, like Gecko) Chrome/118.0.0.0 Safari/537.36" etag="rHrjcx1QGFZ8XX6BgF0C" version="22.0.6" type="device">
  <diagram id="qaiLERLcsFXwNnowRdfb" name="Page-1">
    <mxGraphModel dx="1173" dy="493" grid="1" gridSize="10" guides="1" tooltips="1" connect="1" arrows="1" fold="1" page="1" pageScale="1" pageWidth="827" pageHeight="1169" math="0" shadow="0">
      <root>
        <mxCell id="0" />
        <mxCell id="1" parent="0" />
        <mxCell id="livhMUzMRyDO7-Sf7a0v-1" value="Scientist" style="swimlane;fontStyle=0;childLayout=stackLayout;horizontal=1;startSize=26;fillColor=none;horizontalStack=0;resizeParent=1;resizeParentMax=0;resizeLast=0;collapsible=1;marginBottom=0;" vertex="1" parent="1">
          <mxGeometry x="310" y="370" width="140" height="104" as="geometry" />
        </mxCell>
        <mxCell id="livhMUzMRyDO7-Sf7a0v-2" value="-name" style="text;strokeColor=none;fillColor=none;align=left;verticalAlign=top;spacingLeft=4;spacingRight=4;overflow=hidden;rotatable=0;points=[[0,0.5],[1,0.5]];portConstraint=eastwest;" vertex="1" parent="livhMUzMRyDO7-Sf7a0v-1">
          <mxGeometry y="26" width="140" height="26" as="geometry" />
        </mxCell>
        <mxCell id="livhMUzMRyDO7-Sf7a0v-3" value="-age" style="text;strokeColor=none;fillColor=none;align=left;verticalAlign=top;spacingLeft=4;spacingRight=4;overflow=hidden;rotatable=0;points=[[0,0.5],[1,0.5]];portConstraint=eastwest;" vertex="1" parent="livhMUzMRyDO7-Sf7a0v-1">
          <mxGeometry y="52" width="140" height="26" as="geometry" />
        </mxCell>
        <mxCell id="livhMUzMRyDO7-Sf7a0v-39" value="+manageAirSettings()" style="text;strokeColor=none;fillColor=none;align=left;verticalAlign=top;spacingLeft=4;spacingRight=4;overflow=hidden;rotatable=0;points=[[0,0.5],[1,0.5]];portConstraint=eastwest;" vertex="1" parent="livhMUzMRyDO7-Sf7a0v-1">
          <mxGeometry y="78" width="140" height="26" as="geometry" />
        </mxCell>
        <mxCell id="livhMUzMRyDO7-Sf7a0v-40" value="" style="endArrow=none;html=1;rounded=0;exitX=0.007;exitY=0.026;exitDx=0;exitDy=0;exitPerimeter=0;entryX=0.998;entryY=0.051;entryDx=0;entryDy=0;entryPerimeter=0;" edge="1" parent="livhMUzMRyDO7-Sf7a0v-1" source="livhMUzMRyDO7-Sf7a0v-39" target="livhMUzMRyDO7-Sf7a0v-39">
          <mxGeometry width="50" height="50" relative="1" as="geometry">
            <mxPoint x="320" y="240" as="sourcePoint" />
            <mxPoint x="370" y="190" as="targetPoint" />
          </mxGeometry>
        </mxCell>
        <mxCell id="livhMUzMRyDO7-Sf7a0v-4" value="AirSettings" style="swimlane;fontStyle=0;childLayout=stackLayout;horizontal=1;startSize=26;fillColor=none;horizontalStack=0;resizeParent=1;resizeParentMax=0;resizeLast=0;collapsible=1;marginBottom=0;" vertex="1" parent="1">
          <mxGeometry x="590" y="370" width="160" height="104" as="geometry" />
        </mxCell>
        <mxCell id="livhMUzMRyDO7-Sf7a0v-5" value="-polutionLevel" style="text;strokeColor=none;fillColor=none;align=left;verticalAlign=top;spacingLeft=4;spacingRight=4;overflow=hidden;rotatable=0;points=[[0,0.5],[1,0.5]];portConstraint=eastwest;" vertex="1" parent="livhMUzMRyDO7-Sf7a0v-4">
          <mxGeometry y="26" width="160" height="26" as="geometry" />
        </mxCell>
        <mxCell id="livhMUzMRyDO7-Sf7a0v-6" value="-humidityLevel" style="text;strokeColor=none;fillColor=none;align=left;verticalAlign=top;spacingLeft=4;spacingRight=4;overflow=hidden;rotatable=0;points=[[0,0.5],[1,0.5]];portConstraint=eastwest;" vertex="1" parent="livhMUzMRyDO7-Sf7a0v-4">
          <mxGeometry y="52" width="160" height="26" as="geometry" />
        </mxCell>
        <mxCell id="livhMUzMRyDO7-Sf7a0v-41" value="+getSettings()" style="text;strokeColor=none;fillColor=none;align=left;verticalAlign=top;spacingLeft=4;spacingRight=4;overflow=hidden;rotatable=0;points=[[0,0.5],[1,0.5]];portConstraint=eastwest;" vertex="1" parent="livhMUzMRyDO7-Sf7a0v-4">
          <mxGeometry y="78" width="160" height="26" as="geometry" />
        </mxCell>
        <mxCell id="livhMUzMRyDO7-Sf7a0v-42" value="" style="endArrow=none;html=1;rounded=0;exitX=-0.003;exitY=0;exitDx=0;exitDy=0;exitPerimeter=0;entryX=1;entryY=0.75;entryDx=0;entryDy=0;" edge="1" parent="livhMUzMRyDO7-Sf7a0v-4" source="livhMUzMRyDO7-Sf7a0v-41" target="livhMUzMRyDO7-Sf7a0v-4">
          <mxGeometry width="50" height="50" relative="1" as="geometry">
            <mxPoint x="-252.39" y="87" as="sourcePoint" />
            <mxPoint x="136.61" y="78" as="targetPoint" />
          </mxGeometry>
        </mxCell>
        <mxCell id="livhMUzMRyDO7-Sf7a0v-7" value="PolutionTracker" style="swimlane;fontStyle=0;childLayout=stackLayout;horizontal=1;startSize=26;fillColor=none;horizontalStack=0;resizeParent=1;resizeParentMax=0;resizeLast=0;collapsible=1;marginBottom=0;" vertex="1" parent="1">
          <mxGeometry x="573.39" y="595" width="186.61" height="130" as="geometry" />
        </mxCell>
        <mxCell id="livhMUzMRyDO7-Sf7a0v-8" value="-airPoluted" style="text;strokeColor=none;fillColor=none;align=left;verticalAlign=top;spacingLeft=4;spacingRight=4;overflow=hidden;rotatable=0;points=[[0,0.5],[1,0.5]];portConstraint=eastwest;" vertex="1" parent="livhMUzMRyDO7-Sf7a0v-7">
          <mxGeometry y="26" width="186.61" height="26" as="geometry" />
        </mxCell>
        <mxCell id="livhMUzMRyDO7-Sf7a0v-9" value="-lowHumidity" style="text;strokeColor=none;fillColor=none;align=left;verticalAlign=top;spacingLeft=4;spacingRight=4;overflow=hidden;rotatable=0;points=[[0,0.5],[1,0.5]];portConstraint=eastwest;" vertex="1" parent="livhMUzMRyDO7-Sf7a0v-7">
          <mxGeometry y="52" width="186.61" height="26" as="geometry" />
        </mxCell>
        <mxCell id="livhMUzMRyDO7-Sf7a0v-55" value="" style="endArrow=none;html=1;rounded=0;exitX=0.007;exitY=0;exitDx=0;exitDy=0;exitPerimeter=0;entryX=1;entryY=1.066;entryDx=0;entryDy=0;entryPerimeter=0;" edge="1" parent="livhMUzMRyDO7-Sf7a0v-7" target="livhMUzMRyDO7-Sf7a0v-9">
          <mxGeometry width="50" height="50" relative="1" as="geometry">
            <mxPoint y="79" as="sourcePoint" />
            <mxPoint x="139" y="78" as="targetPoint" />
          </mxGeometry>
        </mxCell>
        <mxCell id="livhMUzMRyDO7-Sf7a0v-44" value="+trackPolutionAndHumidity()" style="text;strokeColor=none;fillColor=none;align=left;verticalAlign=top;spacingLeft=4;spacingRight=4;overflow=hidden;rotatable=0;points=[[0,0.5],[1,0.5]];portConstraint=eastwest;" vertex="1" parent="livhMUzMRyDO7-Sf7a0v-7">
          <mxGeometry y="78" width="186.61" height="26" as="geometry" />
        </mxCell>
        <mxCell id="livhMUzMRyDO7-Sf7a0v-47" value="+createNotification()" style="text;strokeColor=none;fillColor=none;align=left;verticalAlign=top;spacingLeft=4;spacingRight=4;overflow=hidden;rotatable=0;points=[[0,0.5],[1,0.5]];portConstraint=eastwest;" vertex="1" parent="livhMUzMRyDO7-Sf7a0v-7">
          <mxGeometry y="104" width="186.61" height="26" as="geometry" />
        </mxCell>
        <mxCell id="livhMUzMRyDO7-Sf7a0v-10" value="NotificationSender" style="swimlane;fontStyle=0;childLayout=stackLayout;horizontal=1;startSize=26;fillColor=none;horizontalStack=0;resizeParent=1;resizeParentMax=0;resizeLast=0;collapsible=1;marginBottom=0;" vertex="1" parent="1">
          <mxGeometry x="310" y="595" width="140" height="136" as="geometry" />
        </mxCell>
        <mxCell id="livhMUzMRyDO7-Sf7a0v-11" value="-date" style="text;strokeColor=none;fillColor=none;align=left;verticalAlign=top;spacingLeft=4;spacingRight=4;overflow=hidden;rotatable=0;points=[[0,0.5],[1,0.5]];portConstraint=eastwest;" vertex="1" parent="livhMUzMRyDO7-Sf7a0v-10">
          <mxGeometry y="26" width="140" height="26" as="geometry" />
        </mxCell>
        <mxCell id="livhMUzMRyDO7-Sf7a0v-12" value="-message" style="text;strokeColor=none;fillColor=none;align=left;verticalAlign=top;spacingLeft=4;spacingRight=4;overflow=hidden;rotatable=0;points=[[0,0.5],[1,0.5]];portConstraint=eastwest;" vertex="1" parent="livhMUzMRyDO7-Sf7a0v-10">
          <mxGeometry y="52" width="140" height="28" as="geometry" />
        </mxCell>
        <mxCell id="livhMUzMRyDO7-Sf7a0v-13" value="-type" style="text;strokeColor=none;fillColor=none;align=left;verticalAlign=top;spacingLeft=4;spacingRight=4;overflow=hidden;rotatable=0;points=[[0,0.5],[1,0.5]];portConstraint=eastwest;" vertex="1" parent="livhMUzMRyDO7-Sf7a0v-10">
          <mxGeometry y="80" width="140" height="28" as="geometry" />
        </mxCell>
        <mxCell id="livhMUzMRyDO7-Sf7a0v-48" value="+sendNotification()" style="text;strokeColor=none;fillColor=none;align=left;verticalAlign=top;spacingLeft=4;spacingRight=4;overflow=hidden;rotatable=0;points=[[0,0.5],[1,0.5]];portConstraint=eastwest;" vertex="1" parent="livhMUzMRyDO7-Sf7a0v-10">
          <mxGeometry y="108" width="140" height="28" as="geometry" />
        </mxCell>
        <mxCell id="livhMUzMRyDO7-Sf7a0v-49" value="" style="endArrow=none;html=1;rounded=0;exitX=0.007;exitY=0;exitDx=0;exitDy=0;exitPerimeter=0;entryX=0.997;entryY=-0.042;entryDx=0;entryDy=0;entryPerimeter=0;" edge="1" parent="livhMUzMRyDO7-Sf7a0v-10" source="livhMUzMRyDO7-Sf7a0v-48" target="livhMUzMRyDO7-Sf7a0v-48">
          <mxGeometry width="50" height="50" relative="1" as="geometry">
            <mxPoint x="74.38999999999999" y="-82.37" as="sourcePoint" />
            <mxPoint x="213.39" y="-82.37" as="targetPoint" />
          </mxGeometry>
        </mxCell>
        <mxCell id="livhMUzMRyDO7-Sf7a0v-14" value="" style="endArrow=open;startArrow=none;endFill=0;startFill=0;endSize=8;html=1;verticalAlign=bottom;labelBackgroundColor=none;strokeWidth=1;rounded=0;entryX=0;entryY=0.5;entryDx=0;entryDy=0;exitX=1;exitY=0.5;exitDx=0;exitDy=0;" edge="1" parent="1" source="livhMUzMRyDO7-Sf7a0v-2" target="livhMUzMRyDO7-Sf7a0v-5">
          <mxGeometry width="160" relative="1" as="geometry">
            <mxPoint x="463.39" y="610" as="sourcePoint" />
            <mxPoint x="623.39" y="610" as="targetPoint" />
          </mxGeometry>
        </mxCell>
        <mxCell id="livhMUzMRyDO7-Sf7a0v-15" value="1" style="text;html=1;strokeColor=none;fillColor=none;align=center;verticalAlign=middle;whiteSpace=wrap;rounded=0;" vertex="1" parent="1">
          <mxGeometry x="433.39" y="380" width="60" height="30" as="geometry" />
        </mxCell>
        <mxCell id="livhMUzMRyDO7-Sf7a0v-16" value="*" style="text;html=1;strokeColor=none;fillColor=none;align=center;verticalAlign=middle;whiteSpace=wrap;rounded=0;" vertex="1" parent="1">
          <mxGeometry x="540" y="380" width="60" height="30" as="geometry" />
        </mxCell>
        <mxCell id="livhMUzMRyDO7-Sf7a0v-17" value="manage" style="text;html=1;strokeColor=none;fillColor=none;align=center;verticalAlign=middle;whiteSpace=wrap;rounded=0;" vertex="1" parent="1">
          <mxGeometry x="490" y="380" width="60" height="30" as="geometry" />
        </mxCell>
        <mxCell id="livhMUzMRyDO7-Sf7a0v-18" value="" style="endArrow=open;startArrow=none;endFill=0;startFill=0;endSize=8;html=1;verticalAlign=bottom;labelBackgroundColor=none;strokeWidth=1;rounded=0;exitX=0.47;exitY=0.984;exitDx=0;exitDy=0;entryX=0.5;entryY=0;entryDx=0;entryDy=0;exitPerimeter=0;" edge="1" parent="1" target="livhMUzMRyDO7-Sf7a0v-7" source="livhMUzMRyDO7-Sf7a0v-41">
          <mxGeometry width="160" relative="1" as="geometry">
            <mxPoint x="643.39" y="500" as="sourcePoint" />
            <mxPoint x="563.39" y="570" as="targetPoint" />
          </mxGeometry>
        </mxCell>
        <mxCell id="livhMUzMRyDO7-Sf7a0v-19" value="1" style="text;html=1;strokeColor=none;fillColor=none;align=center;verticalAlign=middle;whiteSpace=wrap;rounded=0;" vertex="1" parent="1">
          <mxGeometry x="653.39" y="474" width="60" height="30" as="geometry" />
        </mxCell>
        <mxCell id="livhMUzMRyDO7-Sf7a0v-20" value="1" style="text;html=1;strokeColor=none;fillColor=none;align=center;verticalAlign=middle;whiteSpace=wrap;rounded=0;" vertex="1" parent="1">
          <mxGeometry x="653.39" y="558" width="60" height="30" as="geometry" />
        </mxCell>
        <mxCell id="livhMUzMRyDO7-Sf7a0v-21" value="" style="endArrow=open;startArrow=none;endFill=0;startFill=0;endSize=8;html=1;verticalAlign=bottom;labelBackgroundColor=none;strokeWidth=1;rounded=0;exitX=0.5;exitY=0;exitDx=0;exitDy=0;entryX=0.5;entryY=1;entryDx=0;entryDy=0;" edge="1" parent="1" source="livhMUzMRyDO7-Sf7a0v-10" target="livhMUzMRyDO7-Sf7a0v-1">
          <mxGeometry width="160" relative="1" as="geometry">
            <mxPoint x="450" y="635.5" as="sourcePoint" />
            <mxPoint x="370" y="490" as="targetPoint" />
          </mxGeometry>
        </mxCell>
        <mxCell id="livhMUzMRyDO7-Sf7a0v-22" value="1" style="text;html=1;strokeColor=none;fillColor=none;align=center;verticalAlign=middle;whiteSpace=wrap;rounded=0;" vertex="1" parent="1">
          <mxGeometry x="340" y="570" width="60" height="30" as="geometry" />
        </mxCell>
        <mxCell id="livhMUzMRyDO7-Sf7a0v-23" value="*" style="text;html=1;strokeColor=none;fillColor=none;align=center;verticalAlign=middle;whiteSpace=wrap;rounded=0;" vertex="1" parent="1">
          <mxGeometry x="330" y="487" width="60" height="30" as="geometry" />
        </mxCell>
        <mxCell id="livhMUzMRyDO7-Sf7a0v-24" value="send" style="text;html=1;strokeColor=none;fillColor=none;align=center;verticalAlign=middle;whiteSpace=wrap;rounded=0;" vertex="1" parent="1">
          <mxGeometry x="330" y="528" width="60" height="30" as="geometry" />
        </mxCell>
        <mxCell id="livhMUzMRyDO7-Sf7a0v-25" value="get" style="text;html=1;strokeColor=none;fillColor=none;align=center;verticalAlign=middle;whiteSpace=wrap;rounded=0;" vertex="1" parent="1">
          <mxGeometry x="653.39" y="517" width="60" height="30" as="geometry" />
        </mxCell>
        <mxCell id="livhMUzMRyDO7-Sf7a0v-26" value="ClarityIoApiClient" style="swimlane;fontStyle=0;childLayout=stackLayout;horizontal=1;startSize=26;fillColor=none;horizontalStack=0;resizeParent=1;resizeParentMax=0;resizeLast=0;collapsible=1;marginBottom=0;" vertex="1" parent="1">
          <mxGeometry x="596.6899999999999" y="812" width="140" height="130" as="geometry" />
        </mxCell>
        <mxCell id="livhMUzMRyDO7-Sf7a0v-27" value="-airPolutionLevel" style="text;strokeColor=none;fillColor=none;align=left;verticalAlign=top;spacingLeft=4;spacingRight=4;overflow=hidden;rotatable=0;points=[[0,0.5],[1,0.5]];portConstraint=eastwest;" vertex="1" parent="livhMUzMRyDO7-Sf7a0v-26">
          <mxGeometry y="26" width="140" height="26" as="geometry" />
        </mxCell>
        <mxCell id="livhMUzMRyDO7-Sf7a0v-28" value="-airHumidityLevel" style="text;strokeColor=none;fillColor=none;align=left;verticalAlign=top;spacingLeft=4;spacingRight=4;overflow=hidden;rotatable=0;points=[[0,0.5],[1,0.5]];portConstraint=eastwest;" vertex="1" parent="livhMUzMRyDO7-Sf7a0v-26">
          <mxGeometry y="52" width="140" height="26" as="geometry" />
        </mxCell>
        <mxCell id="livhMUzMRyDO7-Sf7a0v-54" value="" style="endArrow=none;html=1;rounded=0;exitX=0.007;exitY=0;exitDx=0;exitDy=0;exitPerimeter=0;entryX=0.997;entryY=-0.042;entryDx=0;entryDy=0;entryPerimeter=0;" edge="1" parent="livhMUzMRyDO7-Sf7a0v-26">
          <mxGeometry width="50" height="50" relative="1" as="geometry">
            <mxPoint x="1.1368683772161603e-13" y="79" as="sourcePoint" />
            <mxPoint x="139.0000000000001" y="78" as="targetPoint" />
          </mxGeometry>
        </mxCell>
        <mxCell id="livhMUzMRyDO7-Sf7a0v-52" value="+getPolutionLevel()" style="text;strokeColor=none;fillColor=none;align=left;verticalAlign=top;spacingLeft=4;spacingRight=4;overflow=hidden;rotatable=0;points=[[0,0.5],[1,0.5]];portConstraint=eastwest;" vertex="1" parent="livhMUzMRyDO7-Sf7a0v-26">
          <mxGeometry y="78" width="140" height="26" as="geometry" />
        </mxCell>
        <mxCell id="livhMUzMRyDO7-Sf7a0v-53" value="+getHumidityLevel()" style="text;strokeColor=none;fillColor=none;align=left;verticalAlign=top;spacingLeft=4;spacingRight=4;overflow=hidden;rotatable=0;points=[[0,0.5],[1,0.5]];portConstraint=eastwest;" vertex="1" parent="livhMUzMRyDO7-Sf7a0v-26">
          <mxGeometry y="104" width="140" height="26" as="geometry" />
        </mxCell>
        <mxCell id="livhMUzMRyDO7-Sf7a0v-29" value="" style="endArrow=open;startArrow=none;endFill=0;startFill=0;endSize=8;html=1;verticalAlign=bottom;labelBackgroundColor=none;strokeWidth=1;rounded=0;exitX=0.5;exitY=0;exitDx=0;exitDy=0;entryX=0.505;entryY=0.974;entryDx=0;entryDy=0;entryPerimeter=0;" edge="1" parent="1" source="livhMUzMRyDO7-Sf7a0v-26" target="livhMUzMRyDO7-Sf7a0v-47">
          <mxGeometry width="160" relative="1" as="geometry">
            <mxPoint x="643.39" y="852" as="sourcePoint" />
            <mxPoint x="643.39" y="742" as="targetPoint" />
          </mxGeometry>
        </mxCell>
        <mxCell id="livhMUzMRyDO7-Sf7a0v-30" value="1" style="text;html=1;strokeColor=none;fillColor=none;align=center;verticalAlign=middle;whiteSpace=wrap;rounded=0;" vertex="1" parent="1">
          <mxGeometry x="653.39" y="731" width="60" height="30" as="geometry" />
        </mxCell>
        <mxCell id="livhMUzMRyDO7-Sf7a0v-31" value="1" style="text;html=1;strokeColor=none;fillColor=none;align=center;verticalAlign=middle;whiteSpace=wrap;rounded=0;" vertex="1" parent="1">
          <mxGeometry x="653.39" y="780" width="60" height="30" as="geometry" />
        </mxCell>
        <mxCell id="livhMUzMRyDO7-Sf7a0v-32" value="get" style="text;html=1;strokeColor=none;fillColor=none;align=center;verticalAlign=middle;whiteSpace=wrap;rounded=0;" vertex="1" parent="1">
          <mxGeometry x="653.39" y="750" width="60" height="30" as="geometry" />
        </mxCell>
        <mxCell id="livhMUzMRyDO7-Sf7a0v-33" value="" style="endArrow=open;startArrow=none;endFill=0;startFill=0;endSize=8;html=1;verticalAlign=bottom;labelBackgroundColor=none;strokeWidth=1;rounded=0;entryX=1.009;entryY=0.625;entryDx=0;entryDy=0;exitX=0.001;exitY=0.702;exitDx=0;exitDy=0;entryPerimeter=0;exitPerimeter=0;" edge="1" parent="1" source="livhMUzMRyDO7-Sf7a0v-9" target="livhMUzMRyDO7-Sf7a0v-12">
          <mxGeometry width="160" relative="1" as="geometry">
            <mxPoint x="563.39" y="669.5" as="sourcePoint" />
            <mxPoint x="440.39" y="669.5" as="targetPoint" />
          </mxGeometry>
        </mxCell>
        <mxCell id="livhMUzMRyDO7-Sf7a0v-34" value="1" style="text;html=1;strokeColor=none;fillColor=none;align=center;verticalAlign=middle;whiteSpace=wrap;rounded=0;" vertex="1" parent="1">
          <mxGeometry x="433.39" y="667.5" width="60" height="30" as="geometry" />
        </mxCell>
        <mxCell id="livhMUzMRyDO7-Sf7a0v-36" value="create" style="text;html=1;strokeColor=none;fillColor=none;align=center;verticalAlign=middle;whiteSpace=wrap;rounded=0;" vertex="1" parent="1">
          <mxGeometry x="480" y="667.5" width="60" height="30" as="geometry" />
        </mxCell>
        <mxCell id="livhMUzMRyDO7-Sf7a0v-35" value="*" style="text;html=1;strokeColor=none;fillColor=none;align=center;verticalAlign=middle;whiteSpace=wrap;rounded=0;" vertex="1" parent="1">
          <mxGeometry x="540" y="672.5" width="46.61" height="20" as="geometry" />
        </mxCell>
      </root>
    </mxGraphModel>
  </diagram>
</mxfile>
